<svg xmlns="http://www.w3.org/2000/svg" viewBox="0 0 538.68 320"><defs><style>.cls-1{fill:#0b93d8;}</style></defs><title>Ресурс 1</title><g id="Слой_2" data-name="Слой 2"><g id="Слой_1-2" data-name="Слой 1"><path class="cls-1" d="M526.4,21.7C530.1,9.2,526.4,0,508.6,0H449.7c-15,0-21.9,7.9-25.6,16.7,0,0-30,73.1-72.4,120.5-13.7,13.7-20,18.1-27.5,18.1-3.7,0-9.4-4.4-9.4-16.9V21.7c0-15-4.2-21.7-16.6-21.7H205.6c-9.4,0-15,7-15,13.5C190.6,27.7,211.8,31,214,71v86.8c0,19-3.4,22.5-10.9,22.5-20,0-68.6-73.4-97.4-157.4C99.9,6.6,94.2,0,79.1,0H20.2C3.4,0,0,7.9,0,16.7c0,15.6,20,93.1,93.1,195.5C141.8,282.1,210.4,320,272.8,320c37.5,0,42.1-8.4,42.1-22.9,0-66.8-3.4-73.1,15.4-73.1,8.7,0,23.7,4.4,58.7,38.1,40,40,46.6,57.9,69,57.9h58.9c16.8,0,25.3-8.4,20.4-25-11.2-34.9-86.9-106.7-90.3-111.5-8.7-11.2-6.2-16.2,0-26.2.1-.1,72-101.3,79.4-135.6Z"/></g></g></svg>