<svg xmlns="http://www.w3.org/2000/svg" viewBox="0 0 546.13 384"><defs><style>.cls-1{fill:#dd180a;}</style></defs><title>Ресурс 1</title><g id="Слой_2" data-name="Слой 2"><g id="Слой_1-2" data-name="Слой 1"><path class="cls-1" d="M534.72,60.08a68.6,68.6,0,0,0-48.28-48.59C443.85,0,273.07,0,273.07,0S102.29,0,59.7,11.49A68.61,68.61,0,0,0,11.41,60.08C0,103,0,192.39,0,192.39s0,89.44,11.41,132.3c6.28,23.65,24.79,41.5,48.29,47.82C102.29,384,273.07,384,273.07,384s170.78,0,213.37-11.49c23.49-6.32,42-24.17,48.28-47.82,11.41-42.86,11.41-132.3,11.41-132.3S546.13,103,534.72,60.08ZM217.21,273.59V111.18L360,192.39l-142.74,81.2Z"/></g></g></svg>