<svg xmlns="http://www.w3.org/2000/svg" viewBox="0 0 614.4 384"><defs><style>.cls-1{fill:#919191;}</style></defs><title>Ресурс 1</title><g id="Слой_2" data-name="Слой 2"><g id="Слой_1-2" data-name="Слой 1"><path class="cls-1" d="M373.26,164.5a162.36,162.36,0,0,1,3.14,31.95C376.4,306.2,302.8,384,192,384A192,192,0,0,1,192,0c51.86,0,95.08,18.86,128.61,50.29l-52.12,50c-14.15-13.62-39-29.6-76.49-29.6C126.52,70.72,73.08,124.94,73.08,192S126.52,313.28,192,313.28c76,0,104.51-54.75,109-82.78H192v-66H373.26Zm185.41,6.43V115.2h-56v55.73H446.93v56h55.74v55.74h56V226.93H614.4v-56Z"/></g></g></svg>