<svg xmlns="http://www.w3.org/2000/svg" viewBox="0 0 448 447.98"><defs><style>.cls-1{fill:#919191;}</style></defs><title>Ресурс 1</title><g id="Слой_2" data-name="Слой 2"><g id="Слой_1-2" data-name="Слой 1"><path class="cls-1" d="M100.28,448H7.4V148.88h92.88ZM53.79,108.08C24.09,108.08,0,83.48,0,53.78a53.79,53.79,0,0,1,107.58,0C107.58,83.48,83.48,108.08,53.79,108.08ZM447.9,448H355.22V302.38c0-34.7-.7-79.2-48.29-79.2-48.29,0-55.69,37.7-55.69,76.7V448H158.46V148.88h89.08v40.8h1.3c12.4-23.5,42.69-48.3,87.88-48.3,94,0,111.28,61.9,111.28,142.3V448Z"/></g></g></svg>