<svg xmlns="http://www.w3.org/2000/svg" viewBox="0 0 576 384"><defs><style>.cls-1{fill:#d0d0d0;}</style></defs><title>Ресурс 1</title><g id="Слой_2" data-name="Слой 2"><g id="Слой_1-2" data-name="Слой 1"><path class="cls-1" d="M572.52,177.4C518.29,71.59,410.93,0,288,0S57.68,71.64,3.48,177.41a32.35,32.35,0,0,0,0,29.19C57.71,312.41,165.07,384,288,384s230.32-71.64,284.52-177.41A32.35,32.35,0,0,0,572.52,177.4ZM288,336a143.93,143.93,0,1,1,.14,0Zm0-240a95.14,95.14,0,0,0-25.31,3.79,47.85,47.85,0,0,1-66.9,66.9A95.79,95.79,0,1,0,288,96Z"/></g></g></svg>