<svg xmlns="http://www.w3.org/2000/svg" viewBox="0 0 576 512"><defs><style>.cls-1{fill:#d0d0d0;}</style></defs><title>Ресурс 1</title><g id="Слой_2" data-name="Слой 2"><g id="Слой_1-2" data-name="Слой 1"><path class="cls-1" d="M528.12,301.32l47.27-208A24,24,0,0,0,552,64H159.21L150,19.19A24,24,0,0,0,126.53,0H24A24,24,0,0,0,0,24V40A24,24,0,0,0,24,64H93.88l70.25,343.43A56,56,0,1,0,231.18,416H440.82a56,56,0,1,0,63.6-10.4l5.52-24.28A24,24,0,0,0,486.53,352H218.12l-6.55-32H504.72A24,24,0,0,0,528.12,301.32Z"/></g></g></svg>