<svg xmlns="http://www.w3.org/2000/svg" viewBox="0 0 512 448"><defs><style>.cls-1{fill:#d0d0d0;}</style></defs><title>Ресурс 1</title><g id="Слой_2" data-name="Слой 2"><g id="Слой_1-2" data-name="Слой 1"><path class="cls-1" d="M256,0C114.6,0,0,93.1,0,208c0,49.6,21.4,95,57,130.7C44.5,389.1,2.7,434,2.2,434.5a8,8,0,0,0-1.5,8.7A7.83,7.83,0,0,0,8,448c66.3,0,116-31.8,140.6-51.4A305,305,0,0,0,256,416c141.4,0,256-93.1,256-208S397.4,0,256,0ZM128,240a32,32,0,1,1,32-32A32,32,0,0,1,128,240Zm128,0a32,32,0,1,1,32-32A32,32,0,0,1,256,240Zm128,0a32,32,0,1,1,32-32A32,32,0,0,1,384,240Z"/></g></g></svg>