<svg xmlns="http://www.w3.org/2000/svg" viewBox="0 0 535 512.06"><defs><style>.cls-1{fill:#919191;}</style></defs><title>Ресурс 1</title><g id="Слой_2" data-name="Слой 2"><g id="Слой_1-2" data-name="Слой 1"><path class="cls-1" d="M507.6,171.51l-146.1-21.3L296.2,17.81c-11.7-23.6-45.6-23.9-57.4,0l-65.3,132.4L27.4,171.51c-26.2,3.8-36.7,36.1-17.7,54.6l105.7,103-25,145.5c-4.5,26.3,23.2,46,46.4,33.7l130.7-68.7,130.7,68.7c23.2,12.2,50.9-7.4,46.4-33.7l-25-145.5,105.7-103c19-18.5,8.5-50.8-17.7-54.6ZM368.1,312.31l23.7,138.4-124.3-65.3-124.3,65.3,23.7-138.4-100.6-98,139-20.2,62.2-126,62.2,126,139,20.2-100.6,98Z"/></g></g></svg>